<svg width="520" height="347" viewBox="0 0 520 347" fill="none" xmlns="http://www.w3.org/2000/svg">
<path d="M291.2 346.667H483.6C489.74 346.667 495.616 344.51 500.933 341.467C506.25 338.424 511.731 334.604 514.8 329.333C517.869 324.063 520.003 318.083 520 311.998C519.997 305.913 517.873 299.936 514.8 294.668L384.8 71.0667C381.732 65.7973 377.983 61.9757 372.667 58.9333C367.351 55.8909 359.739 53.7333 353.6 53.7333C347.461 53.7333 341.583 55.8909 336.267 58.9333C330.951 61.9757 327.202 65.7973 324.133 71.0667L291.2 128.267L225.333 17.3292C222.262 12.0603 218.517 6.50852 213.2 3.46667C207.883 0.424818 202.006 0 195.867 0C189.727 0 183.851 0.424818 178.533 3.46667C173.216 6.50852 167.738 12.0603 164.667 17.3292L3.46667 294.668C0.39343 299.936 0.00267474 305.913 3.31054e-06 311.998C-0.00266812 318.083 0.398057 324.062 3.46667 329.333C6.53528 334.603 12.0162 338.424 17.3333 341.467C22.6504 344.51 28.5268 346.667 34.6667 346.667H156C204.077 346.667 239.07 325.1 263.467 284.267L322.4 182L353.6 128.267L448.933 291.2H322.4L291.2 346.667ZM154.267 291.2H69.3333L195.867 72.8L260 182L217.518 256.056C201.317 282.551 182.845 291.2 154.267 291.2Z" fill="#00DC82"/>
</svg>
